<svg viewBox="0 0 100 100" xmlns="http://www.w3.org/2000/svg" role="img" aria-label="Sello de Diego Valverde">
  <polygon points="50,3 90,25 90,75 50,97 10,75 10,25" fill="#16181B" stroke="#A9842E" stroke-width="2"/>
  <polygon points="50,11 82,29.5 82,70.5 50,89 18,70.5 18,29.5" fill="none" stroke="#0E7A82" stroke-width="1"/>
  <g stroke="#0E7A82" stroke-width="1.6" fill="none" stroke-linecap="round">
    <path d="M50 11 V24"/>
    <path d="M50 89 V76"/>
    <path d="M18 29.5 L30 36"/>
    <path d="M82 29.5 L70 36"/>
    <path d="M18 70.5 L30 64"/>
    <path d="M82 70.5 L70 64"/>
  </g>
  <g fill="#0E7A82">
    <circle cx="50" cy="24" r="2.2"/>
    <circle cx="50" cy="76" r="2.2"/>
    <circle cx="30" cy="36" r="2.2"/>
    <circle cx="70" cy="36" r="2.2"/>
    <circle cx="30" cy="64" r="2.2"/>
    <circle cx="70" cy="64" r="2.2"/>
  </g>
  <text x="50" y="59" text-anchor="middle" font-family="'IBM Plex Mono', monospace" font-size="28" font-weight="700" fill="#F4F5F2">DV</text>
  <line x1="50" y1="50" x2="50" y2="50" stroke="#7A1626"/>
  <rect x="35" y="46" width="30" height="3" fill="#7A1626"/>
</svg>
